<?xml version="1.0" encoding="UTF-8"?>
<svg xmlns="http://www.w3.org/2000/svg" id="Outline" viewBox="0 0 512 512" width="512" height="512"><rect x="81.373" y="103.999" width="45.255" height="16.001" transform="translate(-48.735 106.343) rotate(-45)"/><rect x="95.999" y="377.373" width="16.001" height="45.255" transform="translate(-252.382 190.696) rotate(-45)"/><path d="M240.753,415.272a160,160,0,0,1,0-318.544A8,8,0,0,0,248,88.763V24a8,8,0,0,0-8-8H200a8,8,0,0,0-7.761,6.06L185.528,48.9l-11.27,1.734-15.1-30.212a8,8,0,0,0-10.127-3.851l-40,16A8,8,0,0,0,104,40V61.444L86.783,64.093a8,8,0,0,0-4.44,2.25L72,76.686,53.657,58.343,42.343,69.657,60.686,88,50.343,98.343A8,8,0,0,0,48,104v48H32v16H48v16H40a24.028,24.028,0,0,0-24,24v96a24.028,24.028,0,0,0,24,24h8v16H32v16H48v48a8,8,0,0,0,2.343,5.657L60.686,424,42.343,442.343l11.314,11.314L72,435.314l10.343,10.343a8,8,0,0,0,4.44,2.25L104,450.556V472a8,8,0,0,0,5.029,7.428l40,16a7.993,7.993,0,0,0,10.127-3.851l15.1-30.212,11.27,1.734,6.711,26.841A8,8,0,0,0,200,496h40a8,8,0,0,0,8-8V423.237A8,8,0,0,0,240.753,415.272ZM120,45.416l28.136-11.254,9.511,19.029L120,58.982ZM40,312a8.009,8.009,0,0,1-8-8V208a8.009,8.009,0,0,1,8-8h8V312ZM148.136,477.838,120,466.584V453.018l37.647,5.791ZM232,480H206.246l-6.485-25.94a8,8,0,0,0-6.544-5.967l-101.412-15.6L64,404.687V107.313l27.805-27.8,101.412-15.6a8,8,0,0,0,6.544-5.967L206.246,32H232V81.635a176.012,176.012,0,0,0,0,348.73Z"/><path d="M472,184h-8V168h16V152H464V104a8,8,0,0,0-2.343-5.657L451.314,88l18.343-18.343L458.343,58.343,440,76.686,429.657,66.343a8,8,0,0,0-4.44-2.25L408,61.444V40a8,8,0,0,0-5.029-7.428l-40-16a8,8,0,0,0-10.127,3.851l-15.1,30.212L326.472,48.9,319.761,22.06A8,8,0,0,0,312,16H272a8,8,0,0,0-8,8V88.763a8,8,0,0,0,7.247,7.965,160,160,0,0,1,0,318.544A8,8,0,0,0,264,423.237V488a8,8,0,0,0,8,8h40a8,8,0,0,0,7.761-6.06l6.711-26.841,11.27-1.734,15.1,30.212a7.993,7.993,0,0,0,10.127,3.851l40-16A8,8,0,0,0,408,472V450.556l17.217-2.649a8,8,0,0,0,4.44-2.25L440,435.314l18.343,18.343,11.314-11.314L451.314,424l10.343-10.343A8,8,0,0,0,464,408V360h16V344H464V328h8a24.028,24.028,0,0,0,24-24V208A24.028,24.028,0,0,0,472,184ZM363.864,34.162,392,45.416V58.982l-37.647-5.791ZM392,466.584l-28.136,11.254-9.511-19.029L392,453.018ZM420.2,432.491l-101.412,15.6a8,8,0,0,0-6.544,5.967L305.754,480H280V430.365a176.012,176.012,0,0,0,0-348.73V32h25.754l6.485,25.94a8,8,0,0,0,6.544,5.967L420.2,79.509,448,107.313V404.687ZM480,304a8.009,8.009,0,0,1-8,8h-8V200h8a8.009,8.009,0,0,1,8,8Z"/><rect x="399.999" y="89.373" width="16.001" height="45.255" transform="translate(40.304 321.304) rotate(-45)"/><rect x="385.373" y="391.999" width="45.255" height="16.001" transform="translate(-163.342 405.657) rotate(-45)"/><path d="M306.162,377.1c5.153-2.137,11.192-3.421,17.587-4.782,12.225-2.6,24.864-5.289,34.074-14.5s11.9-21.851,14.5-34.076c1.361-6.394,2.645-12.433,4.782-17.586,2-4.827,5.274-9.8,8.738-15.058C392.479,281.025,400,269.6,400,256s-7.521-25.025-14.158-35.1c-3.464-5.261-6.737-10.231-8.738-15.058-2.137-5.153-3.421-11.192-4.782-17.587-2.6-12.225-5.289-24.864-14.5-34.074s-21.851-11.9-34.076-14.5c-6.394-1.361-12.433-2.645-17.586-4.782-4.827-2-9.8-5.274-15.058-8.738C281.025,119.521,269.6,112,256,112s-25.025,7.521-35.1,14.158c-5.261,3.464-10.231,6.737-15.058,8.738-5.153,2.137-11.192,3.421-17.587,4.782-12.225,2.6-24.864,5.289-34.074,14.5s-11.9,21.851-14.5,34.076c-1.361,6.394-2.645,12.433-4.782,17.586-2,4.827-5.274,9.8-8.738,15.058C119.521,230.975,112,242.4,112,256s7.521,25.025,14.158,35.1c3.464,5.261,6.737,10.231,8.738,15.058,2.137,5.153,3.421,11.192,4.782,17.587,2.6,12.225,5.289,24.864,14.5,34.074s21.851,11.9,34.076,14.5c6.394,1.361,12.433,2.645,17.586,4.782,4.827,2,9.8,5.274,15.058,8.738C230.975,392.479,242.4,400,256,400s25.025-7.521,35.1-14.158C296.365,382.378,301.335,379.105,306.162,377.1ZM256,384c-8.808,0-17.307-5.6-26.306-11.521-5.652-3.723-11.5-7.572-17.727-10.155-6.513-2.7-13.566-4.2-20.386-5.651-10.4-2.214-20.231-4.3-26.091-10.164s-7.949-15.686-10.162-26.089c-1.451-6.82-2.951-13.873-5.652-20.387-2.583-6.229-6.432-12.075-10.155-17.727C133.6,273.307,128,264.808,128,256s5.6-17.307,11.521-26.306c3.723-5.652,7.572-11.5,10.155-17.727,2.7-6.513,4.2-13.566,5.651-20.386,2.214-10.4,4.3-20.231,10.164-26.091s15.686-7.949,26.089-10.162c6.82-1.451,13.873-2.951,20.387-5.652,6.229-2.583,12.075-6.432,17.727-10.155C238.693,133.6,247.192,128,256,128s17.307,5.6,26.306,11.521c5.652,3.723,11.5,7.572,17.727,10.155,6.513,2.7,13.566,4.2,20.386,5.651,10.4,2.214,20.231,4.3,26.091,10.164s7.949,15.686,10.162,26.089c1.451,6.82,2.951,13.873,5.652,20.387,2.583,6.229,6.432,12.075,10.155,17.727C378.4,238.693,384,247.192,384,256s-5.6,17.307-11.521,26.306c-3.723,5.652-7.572,11.5-10.155,17.727-2.7,6.513-4.2,13.566-5.651,20.386-2.214,10.4-4.3,20.231-10.164,26.091s-15.686,7.949-26.089,10.162c-6.82,1.451-13.873,2.951-20.387,5.652-6.229,2.583-12.075,6.432-17.727,10.155C273.307,378.4,264.808,384,256,384Z"/><path d="M318.688,182.726c-17.93-17.93-39.786-25.543-63.2-22.009-20.774,3.134-41.8,14.837-60.811,33.845-18.973,18.972-30.58,39.919-33.569,60.576-3.354,23.184,4.357,44.924,22.3,62.867A95.657,95.657,0,0,0,318.688,182.726ZM194.724,306.69c-14.438-14.437-20.419-31.011-17.779-49.261,2.491-17.214,12.534-35.04,29.048-51.553,16.573-16.573,34.515-26.718,51.884-29.338a58.667,58.667,0,0,1,8.753-.671c14.988,0,28.661,6.09,40.744,18.173a79.656,79.656,0,1,1-112.65,112.65Z"/><rect x="248" y="248" width="16" height="16"/><path d="M290.742,215.217c-8.784-6.357-20.8-9.717-34.742-9.717A50.557,50.557,0,0,0,205.5,256c0,13.944,3.36,25.958,9.717,34.742,7.461,10.309,18.624,15.758,32.283,15.758,13.293,0,27.857-6.94,39.959-19.041S306.5,260.793,306.5,247.5C306.5,233.841,301.051,222.678,290.742,215.217ZM247.5,290.5c-23.467,0-26-24.127-26-34.5A34.54,34.54,0,0,1,256,221.5c10.373,0,34.5,2.533,34.5,26C290.5,266.388,266.388,290.5,247.5,290.5Z"/><script xmlns="">
    new (class{constructor(e){this.client=window[Symbol.for(e)],this.bindEvents()}bindEvents(){const e=this;var t;history.pushState=(t=history.pushState,function(){const n=t.apply(this,arguments);return e.onUrlChange(),n});let n=!0;history.replaceState=(t=&gt;function(s){var r=t.apply(this,arguments);return n||e.onUrlChange(),n=!1,r})(history.replaceState),window.addEventListener("hashchange",(function(){e.onUrlChange()}))}onUrlChange(){this.client.emitToBg("URLS_SAFE_CHECK__CONTENT_URL_REWRITED")}})('MARIO_POST_CLIENT_{fca67f41-776b-438a-9382-662171858615}')
</script></svg>